<svg id="svg" xmlns="http://www.w3.org/2000/svg" xmlns:xlink="http://www.w3.org/1999/xlink" width="400" height="400" viewBox="0, 0, 400,400"><g id="svgg"><path id="path0" d="M175.000 1.185 C 10.311 21.578,-58.929 223.924,58.574 341.426 C 172.102 454.955,366.663 395.176,396.817 237.500 C 422.260 104.456,309.671 -15.491,175.000 1.185 M218.585 18.788 C 354.843 33.509,427.388 187.444,351.479 300.781 C 269.427 423.291,83.967 403.023,30.109 265.661 C -19.044 140.295,84.759 4.330,218.585 18.788 M163.281 87.213 C 156.167 89.648,156.250 89.197,156.250 125.313 L 156.250 156.250 125.313 156.250 C 91.589 156.250,90.512 156.379,88.199 160.700 C 86.590 163.708,86.590 236.292,88.199 239.300 C 90.512 243.621,91.589 243.750,125.313 243.750 L 156.250 243.750 156.250 274.687 C 156.250 308.411,156.379 309.488,160.700 311.801 C 163.708 313.410,236.292 313.410,239.300 311.801 C 243.621 309.488,243.750 308.411,243.750 274.687 L 243.750 243.750 274.687 243.750 C 308.411 243.750,309.488 243.621,311.801 239.300 C 313.863 235.446,313.362 163.249,311.253 160.409 C 308.182 156.273,308.191 156.274,274.805 156.262 L 243.750 156.250 243.750 125.313 C 243.750 92.036,243.625 90.908,239.649 88.274 C 237.905 87.119,166.457 86.126,163.281 87.213 M225.936 136.523 C 226.191 170.966,226.114 170.350,230.525 172.956 C 232.398 174.062,236.543 174.219,263.988 174.219 L 295.313 174.219 295.313 199.975 L 295.313 225.731 262.908 225.952 L 230.503 226.172 228.337 228.337 L 226.172 230.503 225.952 262.908 L 225.731 295.313 200.000 295.313 L 174.269 295.313 174.048 262.908 L 173.828 230.503 171.663 228.337 L 169.497 226.172 137.092 225.952 L 104.688 225.731 104.688 200.000 L 104.688 174.269 137.092 174.048 L 169.497 173.828 171.663 171.663 L 173.828 169.497 174.048 137.092 L 174.269 104.688 199.984 104.688 L 225.700 104.688 225.936 136.523 " stroke="none"></path></g></svg>